<?xml version="1.0" standalone="no"?>
<!DOCTYPE svg PUBLIC "-//W3C//DTD SVG 20010904//EN"
 "http://www.w3.org/TR/2001/REC-SVG-20010904/DTD/svg10.dtd">
<svg version="1.0" xmlns="http://www.w3.org/2000/svg"
 width="352.000000pt" height="71.000000pt" viewBox="0 0 352.000000 71.000000"
 preserveAspectRatio="xMidYMid meet">

<g transform="translate(0.000000,71.000000) scale(0.100000,-0.100000)"
fill="#000000" stroke="none">
<path d="M2 453 c5 -277 9 -297 76 -366 49 -50 123 -77 216 -77 103 0 170 24
226 80 67 67 72 90 77 368 l5 242 -56 0 -56 0 0 -242 c0 -211 -2 -248 -18
-278 -53 -108 -285 -108 -343 0 -17 31 -19 60 -19 277 l0 243 -56 0 -56 0 4
-247z"/>
<path d="M1450 360 l0 -342 188 4 c181 3 189 4 243 31 67 32 142 109 172 175
17 36 22 66 22 132 0 76 -3 92 -33 152 -37 76 -82 120 -162 157 -52 24 -65 26
-242 29 l-188 4 0 -342z m352 240 c51 -14 118 -68 144 -114 66 -117 20 -281
-96 -346 -40 -21 -60 -25 -172 -28 l-128 -4 0 251 0 251 108 0 c59 0 124 -5
144 -10z"/>
<path d="M3080 360 l0 -340 45 0 45 0 0 112 0 113 113 -113 112 -112 60 0 60
0 -114 114 -114 114 97 111 98 111 -55 0 -55 0 -99 -111 -98 -112 -3 227 -2
226 -45 0 -45 0 0 -340z"/>
<path d="M1232 644 c-41 -28 -16 -94 36 -94 21 0 52 34 52 57 0 17 -36 53 -53
53 -7 0 -23 -7 -35 -16z"/>
<path d="M858 456 c-46 -24 -48 -25 -48 -6 0 17 -7 20 -50 20 l-50 0 0 -225 0
-225 50 0 50 0 0 170 0 170 33 20 c41 25 98 26 128 1 23 -19 24 -24 27 -190
l3 -171 51 0 50 0 -4 168 c-3 141 -7 173 -23 206 -42 83 -131 108 -217 62z"/>
<path d="M2281 458 c-149 -74 -159 -320 -17 -416 65 -44 219 -39 281 10 18 14
25 29 25 54 0 19 -3 34 -7 34 -4 0 -27 -10 -51 -22 -58 -28 -145 -30 -188 -4
-35 21 -64 64 -64 95 0 20 4 21 155 21 l155 0 0 39 c0 49 -24 119 -53 150 -55
60 -159 77 -236 39z m172 -98 c15 -17 27 -39 27 -50 0 -19 -7 -20 -110 -20
-99 0 -110 2 -110 18 0 27 29 62 64 78 45 21 96 10 129 -26z"/>
<path d="M1220 245 l0 -225 45 0 45 0 0 225 0 225 -45 0 -45 0 0 -225z"/>
<path d="M2627 463 c-4 -3 -7 -21 -7 -40 l0 -33 115 0 c63 0 115 -2 115 -5 0
-2 -42 -69 -93 -147 -51 -79 -103 -160 -116 -180 l-23 -38 196 0 196 0 0 40 0
40 -120 0 -119 0 76 117 c42 65 96 148 120 186 l43 67 -188 0 c-104 0 -192 -3
-195 -7z"/>
</g>
</svg>
